<svg xmlns="http://www.w3.org/2000/svg" viewBox="0 0 36.9 36.9" enable-background="new 0 0 36.9 36.9"><style type="text/css">.st0{fill:#FFFFFF;}</style><g id="Capa_1"><path class="st0" d="M15.7 17c.3-.2.4-.5.4-.9 0-.5-.2-.8-.6-1-.3-.1-.7-.2-1.2-.2h-2.3v2.3h2.6c.5 0 .8-.1 1.1-.2zM23.1 17.3c-.5 0-.9.1-1.2.4-.3.3-.5.7-.5 1.2h3.5c0-.5-.2-.9-.5-1.2-.4-.3-.8-.4-1.3-.4zM15.7 19.1c-.2-.1-.6-.1-1-.1h-2.6v2.8h2.6c.5 0 .8-.1 1.1-.2.5-.2.7-.7.7-1.3-.1-.6-.4-1-.8-1.2zM18.5 1.5c-9.4 0-17 7.6-17 17s7.6 17 17 17 17-7.6 17-17-7.6-17-17-17zm2.3 12.1h4.5v1.3h-4.5v-1.3zm-2.7 8.5c-.2.3-.4.6-.7.8-.3.3-.7.4-1.2.5-.5.1-1 .1-1.5.1h-4.7v-10.4h5c1.3 0 2.2.4 2.7 1.1.3.4.5 1 .5 1.6 0 .6-.2 1.2-.5 1.5-.2.2-.4.4-.8.6.5.2.9.5 1.2.9.3.4.4.9.4 1.5.1.7-.1 1.3-.4 1.8zm8.9-1.8h-5.7c0 .8.3 1.3.8 1.6.3.2.7.3 1.1.3.5 0 .8-.1 1.1-.4.2-.1.3-.3.4-.5h2.1c-.1.5-.3.9-.8 1.4-.7.8-1.7 1.1-2.9 1.1-1 0-1.9-.3-2.7-1-.8-.6-1.2-1.7-1.2-3.1 0-1.3.4-2.4 1.1-3.1.7-.7 1.6-1.1 2.8-1.1.7 0 1.3.1 1.8.4.5.2 1 .6 1.3 1.1.3.5.5 1 .6 1.6.2.5.2 1 .2 1.7z"/></g></svg>