<?xml version="1.0" encoding="utf-8"?>
<!-- Generator: Adobe Illustrator 18.1.1, SVG Export Plug-In . SVG Version: 6.00 Build 0)  -->
<!DOCTYPE svg PUBLIC "-//W3C//DTD SVG 1.1//EN" "http://www.w3.org/Graphics/SVG/1.1/DTD/svg11.dtd">
<svg version="1.1" xmlns="http://www.w3.org/2000/svg" xmlns:xlink="http://www.w3.org/1999/xlink" x="0px" y="0px"
	 viewBox="0 0 36.9 36.9" style="enable-background:new 0 0 36.9 36.9;" xml:space="preserve">
<style type="text/css">
	.st0{fill:#FFFFFF;}
</style>
<g id="Layer_1">
</g>
<g id="Capa_1">
	<g>
		<path class="st0" d="M15.7,17c0.3-0.2,0.4-0.5,0.4-0.9c0-0.5-0.2-0.8-0.6-1c-0.3-0.1-0.7-0.2-1.2-0.2h-2.3v2.3h2.6
			C15.1,17.2,15.4,17.1,15.7,17z"/>
		<path class="st0" d="M23.1,17.3c-0.5,0-0.9,0.1-1.2,0.4c-0.3,0.3-0.5,0.7-0.5,1.2h3.5c0-0.5-0.2-0.9-0.5-1.2
			C24,17.4,23.6,17.3,23.1,17.3z"/>
		<path class="st0" d="M15.7,19.1C15.5,19,15.1,19,14.7,19h-2.6v2.8h2.6c0.5,0,0.8-0.1,1.1-0.2c0.5-0.2,0.7-0.7,0.7-1.3
			C16.4,19.7,16.1,19.3,15.7,19.1z"/>
		<path class="st0" d="M18.5,1.5c-9.4,0-17,7.6-17,17c0,9.4,7.6,17,17,17c9.4,0,17-7.6,17-17C35.5,9.1,27.9,1.5,18.5,1.5z
			 M20.8,13.6h4.5v1.3h-4.5V13.6z M18.1,22.1c-0.2,0.3-0.4,0.6-0.7,0.8c-0.3,0.3-0.7,0.4-1.2,0.5c-0.5,0.1-1,0.1-1.5,0.1H10V13.1H15
			c1.3,0,2.2,0.4,2.7,1.1c0.3,0.4,0.5,1,0.5,1.6c0,0.6-0.2,1.2-0.5,1.5c-0.2,0.2-0.4,0.4-0.8,0.6c0.5,0.2,0.9,0.5,1.2,0.9
			c0.3,0.4,0.4,0.9,0.4,1.5C18.6,21,18.4,21.6,18.1,22.1z M27,20.3h-5.7c0,0.8,0.3,1.3,0.8,1.6c0.3,0.2,0.7,0.3,1.1,0.3
			c0.5,0,0.8-0.1,1.1-0.4c0.2-0.1,0.3-0.3,0.4-0.5h2.1c-0.1,0.5-0.3,0.9-0.8,1.4c-0.7,0.8-1.7,1.1-2.9,1.1c-1,0-1.9-0.3-2.7-1
			c-0.8-0.6-1.2-1.7-1.2-3.1c0-1.3,0.4-2.4,1.1-3.1c0.7-0.7,1.6-1.1,2.8-1.1c0.7,0,1.3,0.1,1.8,0.4c0.5,0.2,1,0.6,1.3,1.1
			c0.3,0.5,0.5,1,0.6,1.6C27,19.1,27,19.6,27,20.3z"/>
	</g>
</g>
</svg>
