<svg xmlns="http://www.w3.org/2000/svg" viewBox="0 0 36.9 36.9" enable-background="new 0 0 36.9 36.9"><style type="text/css">.st0{fill:#FFFFFF;}</style><g id="Capa_1"><path class="st0" d="M23.1 18.5c0 2.6-2.1 4.7-4.7 4.7s-4.7-2.1-4.7-4.7c0-.6.1-1.2.3-1.7h-2.5v7c0 .9.7 1.6 1.6 1.6h10.4c.9 0 1.6-.7 1.6-1.6v-7h-2.5c.4.5.5 1.1.5 1.7zM18.5 21.5c1.7 0 3-1.3 3-3 0-.7-.2-1.3-.6-1.7-.5-.8-1.4-1.2-2.4-1.2s-1.9.5-2.4 1.2c-.4.5-.6 1.1-.6 1.7 0 1.6 1.3 3 3 3zM25 14.8v-2.9h-2.9v2.9zM18.5 1.5c-9.4 0-17 7.6-17 17s7.6 17 17 17 17-7.6 17-17-7.6-17-17-17zm8.5 15.2v7c0 1.8-1.5 3.3-3.3 3.3h-10.4c-1.8 0-3.3-1.5-3.3-3.3v-10.5c0-1.8 1.5-3.3 3.3-3.3h10.4c1.8 0 3.3 1.5 3.3 3.3v3.5z"/></g></svg>