<?xml version="1.0" encoding="utf-8"?>
<!-- Generator: Adobe Illustrator 18.1.1, SVG Export Plug-In . SVG Version: 6.00 Build 0)  -->
<!DOCTYPE svg PUBLIC "-//W3C//DTD SVG 1.1//EN" "http://www.w3.org/Graphics/SVG/1.1/DTD/svg11.dtd">
<svg version="1.1" xmlns="http://www.w3.org/2000/svg" xmlns:xlink="http://www.w3.org/1999/xlink" x="0px" y="0px"
	 viewBox="0 0 36.9 36.9" style="enable-background:new 0 0 36.9 36.9;" xml:space="preserve">
<style type="text/css">
	.st0{fill:#FFFFFF;}
</style>
<g id="Layer_1">
</g>
<g id="Capa_1">
	<g>
		<path class="st0" d="M23.1,18.5c0,2.6-2.1,4.7-4.7,4.7c-2.6,0-4.7-2.1-4.7-4.7c0-0.6,0.1-1.2,0.3-1.7h-2.5v7
			c0,0.9,0.7,1.6,1.6,1.6h10.4c0.9,0,1.6-0.7,1.6-1.6v-7h-2.5C23,17.3,23.1,17.9,23.1,18.5z"/>
		<path class="st0" d="M18.5,21.5c1.7,0,3-1.3,3-3c0-0.7-0.2-1.3-0.6-1.7c-0.5-0.8-1.4-1.2-2.4-1.2c-1,0-1.9,0.5-2.4,1.2
			c-0.4,0.5-0.6,1.1-0.6,1.7C15.5,20.1,16.8,21.5,18.5,21.5z"/>
		<polygon class="st0" points="25,14.8 25,12.3 25,11.9 24.6,11.9 22.1,11.9 22.1,14.8 		"/>
		<path class="st0" d="M18.5,1.5c-9.4,0-17,7.6-17,17c0,9.4,7.6,17,17,17c9.4,0,17-7.6,17-17C35.5,9.1,27.9,1.5,18.5,1.5z M27,16.7
			v7c0,1.8-1.5,3.3-3.3,3.3H13.3c-1.8,0-3.3-1.5-3.3-3.3v-7v-3.5c0-1.8,1.5-3.3,3.3-3.3h10.4c1.8,0,3.3,1.5,3.3,3.3V16.7z"/>
	</g>
</g>
</svg>
